<svg width="18" height="18" viewBox="0 0 18 18" fill="none" xmlns="http://www.w3.org/2000/svg">
<path fill-rule="evenodd" clip-rule="evenodd" d="M7.99361 4.21472V9.34957C7.99361 9.88974 8.39045 10.3276 8.87998 10.3276C9.36951 10.3276 9.76636 9.88974 9.76636 9.34957V4.21472C9.76636 3.67455 9.36951 3.23665 8.87998 3.23665C8.39045 3.23665 7.99361 3.67455 7.99361 4.21472ZM6.16965 1.17157C7.73175 -0.390525 10.2644 -0.390524 11.8265 1.17157L16.8246 6.16965C18.3867 7.73175 18.3867 10.2644 16.8246 11.8265L11.8265 16.8246C10.2644 18.3867 7.73175 18.3867 6.16965 16.8246L1.17157 11.8265C-0.390525 10.2644 -0.390523 7.73175 1.17157 6.16965L6.16965 1.17157ZM8.99808 14.7595C9.73238 14.7595 10.3276 14.1642 10.3276 13.4299C10.3276 12.6957 9.73238 12.1004 8.99808 12.1004C8.26378 12.1004 7.66852 12.6957 7.66852 13.4299C7.66852 14.1642 8.26378 14.7595 8.99808 14.7595Z" fill="#BE061B"/>
</svg>
